<svg xmlns="http://www.w3.org/2000/svg" xmlns:xlink="http://www.w3.org/1999/xlink" width="500" zoomAndPan="magnify" viewBox="0 0 375 374.999991" height="500" preserveAspectRatio="xMidYMid meet" version="1.0"><defs><clipPath id="c1c4f9aca7"><path d="M 122.53125 77.929688 L 223 77.929688 L 223 181 L 122.53125 181 Z M 122.53125 77.929688 " clip-rule="nonzero"/></clipPath><clipPath id="13948a9e29"><path d="M 141 87 L 252.28125 87 L 252.28125 227.929688 L 141 227.929688 Z M 141 87 " clip-rule="nonzero"/></clipPath></defs><g clip-path="url(#c1c4f9aca7)"><path fill="#032879" d="M 187.5 93.886719 L 217.117188 110.984375 C 219.085938 106.921875 220.898438 102.640625 222.519531 98.144531 L 187.5 77.929688 L 122.546875 115.429688 L 122.546875 117.785156 C 122.546875 139.839844 128.375 161.597656 139.402344 180.699219 C 139.417969 180.722656 139.433594 180.75 139.445312 180.773438 L 140.207031 180.480469 C 142.953125 179.425781 146.804688 177.820312 151.378906 175.558594 C 142.082031 159.976562 136.761719 142.03125 136.386719 123.394531 L 187.5 93.886719 " fill-opacity="1" fill-rule="nonzero"/></g><g clip-path="url(#13948a9e29)"><path fill="#228099" d="M 234.574219 105.105469 C 233.988281 109.308594 233.046875 114.09375 231.5625 119.324219 L 238.613281 123.394531 C 237.882812 159.609375 218.492188 193.207031 187.5 211.949219 C 179.613281 207.179688 172.480469 201.445312 166.214844 194.953125 C 238.777344 146.746094 230.621094 87.347656 230.621094 87.347656 C 213.703125 152.460938 158.90625 178.183594 141.839844 184.734375 C 145.109375 189.9375 148.753906 194.878906 152.730469 199.527344 C 152.726562 199.527344 152.726562 199.527344 152.726562 199.53125 C 152.785156 199.601562 152.847656 199.671875 152.90625 199.738281 C 153.203125 200.082031 153.5 200.417969 153.796875 200.757812 C 154.089844 201.09375 154.382812 201.429688 154.683594 201.761719 C 154.75 201.835938 154.816406 201.917969 154.886719 201.992188 C 154.886719 201.992188 154.890625 201.992188 154.890625 201.992188 C 163.691406 211.757812 174.003906 220.140625 185.460938 226.757812 L 187.5 227.933594 L 189.539062 226.757812 C 208.640625 215.726562 224.566406 199.800781 235.597656 180.699219 C 246.625 161.597656 252.453125 139.839844 252.453125 117.785156 L 252.453125 115.429688 L 234.574219 105.105469 " fill-opacity="1" fill-rule="nonzero"/></g></svg>